<svg width="1053" height="832" viewBox="0 0 1053 832" fill="none" xmlns="http://www.w3.org/2000/svg">
<ellipse cx="513" cy="371" rx="513" ry="482" fill="url(#paint0_radial_75_13)"/>
<path d="M206 164.441L715.999 165.628" stroke="#09DE5B" stroke-width="20" stroke-linecap="round" stroke-linejoin="round"/>
<path d="M214.932 165.836C214.289 160.351 209.321 156.425 203.836 157.068C198.351 157.711 194.425 162.679 195.068 168.164L214.932 165.836ZM195.068 168.164L233.466 495.787L253.33 493.459L214.932 165.836L195.068 168.164Z" fill="#09DE5B"/>
<path d="M716 167L766.651 481.071" stroke="#09DE5B" stroke-width="20" stroke-linecap="round" stroke-linejoin="round"/>
<line x1="249.022" y1="489" x2="774.578" y2="490.16" stroke="#09DE5B" stroke-width="20" stroke-linejoin="round"/>
<path d="M387.177 537.947L404.805 537.953" stroke="#09DE5B" stroke-width="20" stroke-linecap="round" stroke-linejoin="round"/>
<path d="M424.856 537.312L442.484 537.317" stroke="#09DE5B" stroke-width="20" stroke-linecap="round" stroke-linejoin="round"/>
<path d="M375.356 564.906L415.901 564.919" stroke="#09DE5B" stroke-width="20" stroke-linecap="round" stroke-linejoin="round"/>
<path d="M399.847 590.331L452.731 590.347" stroke="#09DE5B" stroke-width="20" stroke-linecap="round" stroke-linejoin="round"/>
<path d="M584.985 614.77L673.125 614.797" stroke="#09DE5B" stroke-width="20" stroke-linecap="round" stroke-linejoin="round"/>
<path d="M467.746 537.578L485.374 537.583" stroke="#09DE5B" stroke-width="20" stroke-linecap="round" stroke-linejoin="round"/>
<path d="M510.021 537.737L527.649 537.742" stroke="#09DE5B" stroke-width="20" stroke-linecap="round" stroke-linejoin="round"/>
<path d="M551.789 537.809L569.417 537.814" stroke="#09DE5B" stroke-width="20" stroke-linecap="round" stroke-linejoin="round"/>
<path d="M639.306 538.641L656.934 538.647" stroke="#09DE5B" stroke-width="20" stroke-linecap="round" stroke-linejoin="round"/>
<path d="M438.223 563.453L448.8 563.456" stroke="#09DE5B" stroke-width="20" stroke-linecap="round" stroke-linejoin="round"/>
<path d="M504.295 564.152L514.871 564.155" stroke="#09DE5B" stroke-width="20" stroke-linecap="round" stroke-linejoin="round"/>
<path d="M568.629 564.551L579.206 564.554" stroke="#09DE5B" stroke-width="20" stroke-linecap="round" stroke-linejoin="round"/>
<path d="M600.797 564.75L611.373 564.754" stroke="#09DE5B" stroke-width="20" stroke-linecap="round" stroke-linejoin="round"/>
<path d="M632.964 564.95L643.541 564.953" stroke="#09DE5B" stroke-width="20" stroke-linecap="round" stroke-linejoin="round"/>
<path d="M666.869 565.45L677.446 565.453" stroke="#09DE5B" stroke-width="20" stroke-linecap="round" stroke-linejoin="round"/>
<path d="M701.074 564.213L711.651 564.216" stroke="#09DE5B" stroke-width="20" stroke-linecap="round" stroke-linejoin="round"/>
<path d="M736.901 563.942L779.208 563.955" stroke="#09DE5B" stroke-width="20" stroke-linecap="round" stroke-linejoin="round"/>
<path d="M748.415 590.447L801.299 590.463" stroke="#09DE5B" stroke-width="20" stroke-linecap="round" stroke-linejoin="round"/>
<path d="M481.815 590.675L492.392 590.678" stroke="#09DE5B" stroke-width="20" stroke-linecap="round" stroke-linejoin="round"/>
<path d="M517.757 589.739L528.334 589.742" stroke="#09DE5B" stroke-width="20" stroke-linecap="round" stroke-linejoin="round"/>
<path d="M549.624 591.675L560.201 591.678" stroke="#09DE5B" stroke-width="20" stroke-linecap="round" stroke-linejoin="round"/>
<path d="M582.092 590.138L592.669 590.141" stroke="#09DE5B" stroke-width="20" stroke-linecap="round" stroke-linejoin="round"/>
<path d="M614.26 590.337L624.836 590.34" stroke="#09DE5B" stroke-width="20" stroke-linecap="round" stroke-linejoin="round"/>
<path d="M648.164 590.837L658.741 590.84" stroke="#09DE5B" stroke-width="20" stroke-linecap="round" stroke-linejoin="round"/>
<path d="M682.068 591.337L692.645 591.34" stroke="#09DE5B" stroke-width="20" stroke-linecap="round" stroke-linejoin="round"/>
<path d="M716.273 590.1L726.85 590.103" stroke="#09DE5B" stroke-width="20" stroke-linecap="round" stroke-linejoin="round"/>
<path d="M697.869 613.75L708.445 613.753" stroke="#09DE5B" stroke-width="20" stroke-linecap="round" stroke-linejoin="round"/>
<path d="M733.51 614.551L744.087 614.554" stroke="#09DE5B" stroke-width="20" stroke-linecap="round" stroke-linejoin="round"/>
<path d="M765.978 613.013L776.555 613.017" stroke="#09DE5B" stroke-width="20" stroke-linecap="round" stroke-linejoin="round"/>
<path d="M347.761 538.283L365.389 538.288" stroke="#09DE5B" stroke-width="20" stroke-linecap="round" stroke-linejoin="round"/>
<path d="M536.462 564.352L547.039 564.355" stroke="#09DE5B" stroke-width="20" stroke-linecap="round" stroke-linejoin="round"/>
<path d="M470.39 563.652L480.967 563.655" stroke="#09DE5B" stroke-width="20" stroke-linecap="round" stroke-linejoin="round"/>
<path d="M436.326 699.32L968.859 698.713" stroke="#09DE5B" stroke-width="20" stroke-linecap="round" stroke-linejoin="round"/>
<path d="M243.535 493.144L434 699" stroke="#09DE5B" stroke-width="20" stroke-linecap="round" stroke-linejoin="round"/>
<path d="M769 490L965.862 694.663" stroke="#09DE5B" stroke-width="20" stroke-linecap="round" stroke-linejoin="round"/>
<path d="M580.314 634.938C578.919 632.95 580.341 630.215 582.77 630.215L693.586 630.215C694.493 630.215 695.35 630.625 695.92 631.33L733.068 677.326C734.652 679.287 733.257 682.209 730.737 682.211L615.112 682.308C614.133 682.309 613.215 681.833 612.653 681.031L580.314 634.938Z" fill="#09DE5B"/>
<path d="M596.416 538.375L614.044 538.381" stroke="#09DE5B" stroke-width="20" stroke-linecap="round" stroke-linejoin="round"/>
<path d="M678.722 538.306L696.35 538.311" stroke="#09DE5B" stroke-width="20" stroke-linecap="round" stroke-linejoin="round"/>
<path d="M719.709 539.232L763.779 539.246" stroke="#09DE5B" stroke-width="20" stroke-linecap="round" stroke-linejoin="round"/>
<path d="M425.527 616.143L443.155 616.149" stroke="#09DE5B" stroke-width="20" stroke-linecap="round" stroke-linejoin="round"/>
<path d="M466.885 614.926L477.461 614.93" stroke="#09DE5B" stroke-width="20" stroke-linecap="round" stroke-linejoin="round"/>
<path d="M508.038 614.892L518.614 614.895" stroke="#09DE5B" stroke-width="20" stroke-linecap="round" stroke-linejoin="round"/>
<path d="M547.153 616.293L557.729 616.297" stroke="#09DE5B" stroke-width="20" stroke-linecap="round" stroke-linejoin="round"/>
<path d="M801.716 613.26L819.344 613.265" stroke="#09DE5B" stroke-width="20" stroke-linecap="round" stroke-linejoin="round"/>
<path d="M711.5 174L761.5 484.5L249.5 481L215 174L711.5 174Z" fill="#FFFDFD"/>
<circle cx="469.5" cy="165.5" r="4.5" fill="#020202"/>
<defs>
<radialGradient id="paint0_radial_75_13" cx="0" cy="0" r="1" gradientUnits="userSpaceOnUse" gradientTransform="translate(513 371) rotate(90) scale(482 513)">
<stop stop-color="#B4B3B3" stop-opacity="0.01"/>
<stop offset="0.765" stop-color="#020202"/>
</radialGradient>
</defs>
</svg>
