<svg width="88" height="66" viewBox="0 0 88 66" fill="none" xmlns="http://www.w3.org/2000/svg">
<path d="M73.4245 1.541C73.3475 0.99307 72.8426 0.610814 72.2966 0.68721C71.7507 0.763605 71.3705 1.26972 71.4475 1.81765L73.4245 1.541ZM59.5015 23.1077C65.7932 20.898 69.7923 18.5179 71.9353 15.0569C74.0847 11.5857 74.2269 7.25389 73.4245 1.541L71.4475 1.81765C72.2379 7.44502 71.9962 11.1599 70.239 13.9977C68.4755 16.8458 65.0453 19.037 58.8393 21.2167L59.5015 23.1077Z" fill="#EEF9F2"/>
<path d="M0.984968 33.3624C0.630921 33.787 0.687265 34.4178 1.11082 34.7714C1.53437 35.1251 2.16473 35.0676 2.51878 34.6431L0.984968 33.3624ZM23.1411 27.1745C13.4379 25.4453 5.33702 28.144 0.984968 33.3624L2.51878 34.6431C6.29061 30.1204 13.5855 27.5046 22.7874 29.1445L23.1411 27.1745Z" fill="#EEF9F2"/>
<path d="M81.4278 65.2436C81.6435 65.7531 82.2296 65.9911 82.7369 65.7752C83.2442 65.5594 83.4807 64.9714 83.265 64.462L81.4278 65.2436ZM61.669 52.3062C68.6393 54.6424 72.7603 56.0155 75.5844 57.754C78.2985 59.4249 79.8186 61.4422 81.4278 65.2436L83.265 64.462C81.5528 60.4173 79.8061 58.0037 76.6266 56.0464C73.5572 54.1568 69.1578 52.7045 62.2992 50.4058L61.669 52.3062Z" fill="#EEF9F2"/>
<path d="M37.481 49.4592C28.9017 60.6906 27.7629 65.3469 15.2675 46.2548" stroke="#EEF9F2" stroke-width="2"/>
<path d="M21 19.3826L54.5116 13.6404" stroke="#09DE5B" stroke-width="2" stroke-linecap="round" stroke-linejoin="round"/>
<path d="M21 20L27.5076 42.1165" stroke="#09DE5B" stroke-width="2" stroke-linecap="round" stroke-linejoin="round"/>
<path d="M55 14L63 35" stroke="#09DE5B" stroke-width="2" stroke-linecap="round" stroke-linejoin="round"/>
<line y1="-1" x2="37.1024" y2="-1" transform="matrix(0.98529 -0.170889 0.169532 0.985525 26.5867 42.7021)" stroke="#09DE5B" stroke-width="2" stroke-linejoin="round"/>
<path d="M37.5437 43.5785L38.7769 43.3646" stroke="#09DE5B" stroke-width="2" stroke-linecap="round" stroke-linejoin="round"/>
<path d="M40.1716 43.0759L41.4048 42.862" stroke="#09DE5B" stroke-width="2" stroke-linecap="round" stroke-linejoin="round"/>
<path d="M37.0432 45.6158L39.8796 45.1239" stroke="#09DE5B" stroke-width="2" stroke-linecap="round" stroke-linejoin="round"/>
<path d="M39.0642 47.104L42.7638 46.4624" stroke="#09DE5B" stroke-width="2" stroke-linecap="round" stroke-linejoin="round"/>
<path d="M52.311 46.5703L58.4771 45.5009" stroke="#09DE5B" stroke-width="2" stroke-linecap="round" stroke-linejoin="round"/>
<path d="M43.1753 42.5732L44.4085 42.3594" stroke="#09DE5B" stroke-width="2" stroke-linecap="round" stroke-linejoin="round"/>
<path d="M46.1343 42.0706L47.3675 41.8567" stroke="#09DE5B" stroke-width="2" stroke-linecap="round" stroke-linejoin="round"/>
<path d="M49.0574 41.5679L50.2906 41.354" stroke="#09DE5B" stroke-width="2" stroke-linecap="round" stroke-linejoin="round"/>
<path d="M55.1895 40.5626L56.4227 40.3487" stroke="#09DE5B" stroke-width="2" stroke-linecap="round" stroke-linejoin="round"/>
<path d="M41.4233 44.7496L42.1633 44.6212" stroke="#09DE5B" stroke-width="2" stroke-linecap="round" stroke-linejoin="round"/>
<path d="M46.0537 43.9956L46.7936 43.8672" stroke="#09DE5B" stroke-width="2" stroke-linecap="round" stroke-linejoin="round"/>
<path d="M50.5588 43.2416L51.2988 43.1133" stroke="#09DE5B" stroke-width="2" stroke-linecap="round" stroke-linejoin="round"/>
<path d="M52.8118 42.8646L53.5517 42.7363" stroke="#09DE5B" stroke-width="2" stroke-linecap="round" stroke-linejoin="round"/>
<path d="M55.0642 42.4877L55.8041 42.3593" stroke="#09DE5B" stroke-width="2" stroke-linecap="round" stroke-linejoin="round"/>
<path d="M57.4421 42.1107L58.1821 41.9823" stroke="#09DE5B" stroke-width="2" stroke-linecap="round" stroke-linejoin="round"/>
<path d="M59.8198 41.608L60.5597 41.4797" stroke="#09DE5B" stroke-width="2" stroke-linecap="round" stroke-linejoin="round"/>
<path d="M62.3228 41.1535L65.2825 40.6402" stroke="#09DE5B" stroke-width="2" stroke-linecap="round" stroke-linejoin="round"/>
<path d="M63.4492 42.8753L67.1488 42.2337" stroke="#09DE5B" stroke-width="2" stroke-linecap="round" stroke-linejoin="round"/>
<path d="M44.8022 46.1319L45.5422 46.0035" stroke="#09DE5B" stroke-width="2" stroke-linecap="round" stroke-linejoin="round"/>
<path d="M47.3052 45.6292L48.0451 45.5009" stroke="#09DE5B" stroke-width="2" stroke-linecap="round" stroke-linejoin="round"/>
<path d="M49.5576 45.3779L50.2975 45.2495" stroke="#09DE5B" stroke-width="2" stroke-linecap="round" stroke-linejoin="round"/>
<path d="M51.8105 44.8752L52.5505 44.7469" stroke="#09DE5B" stroke-width="2" stroke-linecap="round" stroke-linejoin="round"/>
<path d="M54.0632 44.4982L54.8032 44.3699" stroke="#09DE5B" stroke-width="2" stroke-linecap="round" stroke-linejoin="round"/>
<path d="M56.4409 44.1213L57.1808 43.9929" stroke="#09DE5B" stroke-width="2" stroke-linecap="round" stroke-linejoin="round"/>
<path d="M58.8188 43.7442L59.5588 43.6159" stroke="#09DE5B" stroke-width="2" stroke-linecap="round" stroke-linejoin="round"/>
<path d="M61.1963 43.2416L61.9362 43.1133" stroke="#09DE5B" stroke-width="2" stroke-linecap="round" stroke-linejoin="round"/>
<path d="M60.1951 45.1265L60.935 44.9982" stroke="#09DE5B" stroke-width="2" stroke-linecap="round" stroke-linejoin="round"/>
<path d="M62.698 44.7496L63.4379 44.6212" stroke="#09DE5B" stroke-width="2" stroke-linecap="round" stroke-linejoin="round"/>
<path d="M64.9507 44.2469L65.6906 44.1186" stroke="#09DE5B" stroke-width="2" stroke-linecap="round" stroke-linejoin="round"/>
<path d="M34.7905 44.0811L36.0237 43.8672" stroke="#09DE5B" stroke-width="2" stroke-linecap="round" stroke-linejoin="round"/>
<path d="M48.3064 43.6186L49.0463 43.4903" stroke="#09DE5B" stroke-width="2" stroke-linecap="round" stroke-linejoin="round"/>
<path d="M43.676 44.3725L44.4159 44.2442" stroke="#09DE5B" stroke-width="2" stroke-linecap="round" stroke-linejoin="round"/>
<path d="M42.9352 54.3161L80.1805 47.8005" stroke="#09DE5B" stroke-width="2" stroke-linecap="round" stroke-linejoin="round"/>
<path d="M27.1326 41.8264L43.0896 54.2934" stroke="#09DE5B" stroke-width="2" stroke-linecap="round" stroke-linejoin="round"/>
<path d="M63.8723 35.5882L80.121 47.5712" stroke="#09DE5B" stroke-width="2" stroke-linecap="round" stroke-linejoin="round"/>
<path d="M9.47958 51.1712C9.35004 51.709 9.6793 52.2506 10.215 52.3809C10.7507 52.5111 11.29 52.1806 11.4196 51.6427L9.47958 51.1712ZM15.3682 45.4011C14.0108 46.0811 12.7186 46.7028 11.7053 47.5384C10.6358 48.4204 9.87374 49.5346 9.47958 51.1712L11.4196 51.6427C11.7097 50.4383 12.2304 49.699 12.9723 49.0872C13.7704 48.429 14.8182 47.9166 16.2597 47.1945L15.3682 45.4011Z" fill="#EEF9F2"/>
<ellipse cx="0.984667" cy="1.60384" rx="0.984667" ry="1.60384" transform="matrix(0.990644 -0.136473 0.135377 0.990794 35.1201 24.3903)" fill="#EEF9F2"/>
<ellipse cx="0.960185" cy="1.75579" rx="0.960185" ry="1.75579" transform="matrix(0.990644 -0.136473 0.135377 0.990794 41.6877 22.917)" fill="#EEF9F2"/>
<path d="M33.7116 23.0984C34.7705 22.3895 35.4022 22.058 36.59 21.5905" stroke="#EEF9F2" stroke-width="2" stroke-linecap="round"/>
<path d="M44.9166 19.9682C43.6442 19.9427 42.9341 20.0046 41.6824 20.2523" stroke="#EEF9F2" stroke-width="2" stroke-linecap="round"/>
<path d="M53.3823 48.992C52.8619 48.4027 53.1936 47.4711 53.9693 47.3433L59.7274 46.3947C60.0235 46.3459 60.3258 46.4327 60.5509 46.631L62.1984 48.0821C62.828 48.6367 62.536 49.6733 61.7095 49.8176L55.6779 50.8709C55.3355 50.9307 54.9865 50.8083 54.7564 50.5478L53.3823 48.992Z" fill="#09DE5B"/>
<path d="M36.9913 29.1961C37.5464 30.9312 39.5707 31.772 41.7946 30.7966" stroke="#EEF9F2" stroke-width="2" stroke-linecap="round"/>
<path d="M41.7034 30.8214C42.5098 30.2857 42.895 29.7684 43.223 27.681" stroke="#EEF9F2" stroke-width="2" stroke-linecap="round"/>
<path d="M52.1858 41.0653L53.419 40.8514" stroke="#09DE5B" stroke-width="2" stroke-linecap="round" stroke-linejoin="round"/>
<path d="M57.9429 40.06L59.1761 39.8461" stroke="#09DE5B" stroke-width="2" stroke-linecap="round" stroke-linejoin="round"/>
<path d="M60.8213 39.6268L63.9043 39.0921" stroke="#09DE5B" stroke-width="2" stroke-linecap="round" stroke-linejoin="round"/>
<path d="M41.1731 48.605L42.4063 48.3911" stroke="#09DE5B" stroke-width="2" stroke-linecap="round" stroke-linejoin="round"/>
<path d="M44.0515 48.0167L44.7914 47.8884" stroke="#09DE5B" stroke-width="2" stroke-linecap="round" stroke-linejoin="round"/>
<path d="M46.9297 47.5141L47.6696 47.3858" stroke="#09DE5B" stroke-width="2" stroke-linecap="round" stroke-linejoin="round"/>
<path d="M49.6831 47.1371L50.423 47.0088" stroke="#09DE5B" stroke-width="2" stroke-linecap="round" stroke-linejoin="round"/>
<path d="M67.4541 43.8298L68.6873 43.6159" stroke="#09DE5B" stroke-width="2" stroke-linecap="round" stroke-linejoin="round"/>
<path d="M82.5967 64.6014C84.5156 63.247 85.3479 62.1209 86.2259 59.198" stroke="#EEF9F2" stroke-width="2" stroke-linecap="round"/>
</svg>
