<svg width="931" height="711" viewBox="0 0 931 711" fill="none" xmlns="http://www.w3.org/2000/svg">
<path d="M84.0002 85.4409L593.999 86.6285" stroke="#09DE5B" stroke-width="20" stroke-linecap="round" stroke-linejoin="round"/>
<path d="M92.932 86.836C92.2891 81.3507 87.3213 77.4251 81.836 78.068C76.3507 78.7109 72.4251 83.6787 73.068 89.164L92.932 86.836ZM73.068 89.164L111.466 416.787L131.33 414.459L92.932 86.836L73.068 89.164Z" fill="#09DE5B"/>
<path d="M594 88L644.651 402.071" stroke="#09DE5B" stroke-width="20" stroke-linecap="round" stroke-linejoin="round"/>
<line x1="127.022" y1="410" x2="652.578" y2="411.16" stroke="#09DE5B" stroke-width="20" stroke-linejoin="round"/>
<path d="M265.177 458.947L282.805 458.953" stroke="#09DE5B" stroke-width="20" stroke-linecap="round" stroke-linejoin="round"/>
<path d="M302.856 458.312L320.484 458.317" stroke="#09DE5B" stroke-width="20" stroke-linecap="round" stroke-linejoin="round"/>
<path d="M253.356 485.906L293.901 485.919" stroke="#09DE5B" stroke-width="20" stroke-linecap="round" stroke-linejoin="round"/>
<path d="M277.847 511.331L330.731 511.347" stroke="#09DE5B" stroke-width="20" stroke-linecap="round" stroke-linejoin="round"/>
<path d="M462.985 535.77L551.125 535.797" stroke="#09DE5B" stroke-width="20" stroke-linecap="round" stroke-linejoin="round"/>
<path d="M345.746 458.578L363.374 458.583" stroke="#09DE5B" stroke-width="20" stroke-linecap="round" stroke-linejoin="round"/>
<path d="M388.021 458.737L405.649 458.742" stroke="#09DE5B" stroke-width="20" stroke-linecap="round" stroke-linejoin="round"/>
<path d="M429.789 458.809L447.417 458.814" stroke="#09DE5B" stroke-width="20" stroke-linecap="round" stroke-linejoin="round"/>
<path d="M517.306 459.641L534.934 459.647" stroke="#09DE5B" stroke-width="20" stroke-linecap="round" stroke-linejoin="round"/>
<path d="M316.223 484.453L326.8 484.456" stroke="#09DE5B" stroke-width="20" stroke-linecap="round" stroke-linejoin="round"/>
<path d="M382.295 485.152L392.871 485.155" stroke="#09DE5B" stroke-width="20" stroke-linecap="round" stroke-linejoin="round"/>
<path d="M446.629 485.551L457.206 485.554" stroke="#09DE5B" stroke-width="20" stroke-linecap="round" stroke-linejoin="round"/>
<path d="M478.797 485.75L489.373 485.754" stroke="#09DE5B" stroke-width="20" stroke-linecap="round" stroke-linejoin="round"/>
<path d="M510.964 485.95L521.541 485.953" stroke="#09DE5B" stroke-width="20" stroke-linecap="round" stroke-linejoin="round"/>
<path d="M544.869 486.45L555.446 486.453" stroke="#09DE5B" stroke-width="20" stroke-linecap="round" stroke-linejoin="round"/>
<path d="M579.074 485.213L589.651 485.216" stroke="#09DE5B" stroke-width="20" stroke-linecap="round" stroke-linejoin="round"/>
<path d="M614.901 484.942L657.208 484.955" stroke="#09DE5B" stroke-width="20" stroke-linecap="round" stroke-linejoin="round"/>
<path d="M626.415 511.447L679.299 511.463" stroke="#09DE5B" stroke-width="20" stroke-linecap="round" stroke-linejoin="round"/>
<path d="M359.815 511.675L370.392 511.678" stroke="#09DE5B" stroke-width="20" stroke-linecap="round" stroke-linejoin="round"/>
<path d="M395.757 510.739L406.334 510.742" stroke="#09DE5B" stroke-width="20" stroke-linecap="round" stroke-linejoin="round"/>
<path d="M427.624 512.675L438.201 512.678" stroke="#09DE5B" stroke-width="20" stroke-linecap="round" stroke-linejoin="round"/>
<path d="M460.092 511.138L470.669 511.141" stroke="#09DE5B" stroke-width="20" stroke-linecap="round" stroke-linejoin="round"/>
<path d="M492.26 511.337L502.836 511.34" stroke="#09DE5B" stroke-width="20" stroke-linecap="round" stroke-linejoin="round"/>
<path d="M526.164 511.837L536.741 511.84" stroke="#09DE5B" stroke-width="20" stroke-linecap="round" stroke-linejoin="round"/>
<path d="M560.068 512.337L570.645 512.34" stroke="#09DE5B" stroke-width="20" stroke-linecap="round" stroke-linejoin="round"/>
<path d="M594.273 511.1L604.85 511.103" stroke="#09DE5B" stroke-width="20" stroke-linecap="round" stroke-linejoin="round"/>
<path d="M575.869 534.75L586.445 534.753" stroke="#09DE5B" stroke-width="20" stroke-linecap="round" stroke-linejoin="round"/>
<path d="M611.51 535.551L622.087 535.554" stroke="#09DE5B" stroke-width="20" stroke-linecap="round" stroke-linejoin="round"/>
<path d="M643.978 534.013L654.555 534.017" stroke="#09DE5B" stroke-width="20" stroke-linecap="round" stroke-linejoin="round"/>
<path d="M225.761 459.283L243.389 459.288" stroke="#09DE5B" stroke-width="20" stroke-linecap="round" stroke-linejoin="round"/>
<path d="M414.462 485.352L425.039 485.355" stroke="#09DE5B" stroke-width="20" stroke-linecap="round" stroke-linejoin="round"/>
<path d="M348.39 484.652L358.967 484.655" stroke="#09DE5B" stroke-width="20" stroke-linecap="round" stroke-linejoin="round"/>
<path d="M314.326 620.32L846.859 619.713" stroke="#09DE5B" stroke-width="20" stroke-linecap="round" stroke-linejoin="round"/>
<path d="M121.535 414.144L312 620" stroke="#09DE5B" stroke-width="20" stroke-linecap="round" stroke-linejoin="round"/>
<path d="M647 411L843.862 615.663" stroke="#09DE5B" stroke-width="20" stroke-linecap="round" stroke-linejoin="round"/>
<path d="M458.314 555.938C456.919 553.95 458.341 551.215 460.77 551.215L571.586 551.215C572.493 551.215 573.35 551.625 573.92 552.33L611.068 598.326C612.652 600.287 611.257 603.209 608.737 603.211L493.112 603.308C492.133 603.309 491.215 602.833 490.653 602.031L458.314 555.938Z" fill="#09DE5B"/>
<path d="M474.416 459.375L492.044 459.381" stroke="#09DE5B" stroke-width="20" stroke-linecap="round" stroke-linejoin="round"/>
<path d="M556.722 459.306L574.35 459.311" stroke="#09DE5B" stroke-width="20" stroke-linecap="round" stroke-linejoin="round"/>
<path d="M597.709 460.232L641.779 460.246" stroke="#09DE5B" stroke-width="20" stroke-linecap="round" stroke-linejoin="round"/>
<path d="M303.527 537.143L321.155 537.149" stroke="#09DE5B" stroke-width="20" stroke-linecap="round" stroke-linejoin="round"/>
<path d="M344.885 535.926L355.461 535.93" stroke="#09DE5B" stroke-width="20" stroke-linecap="round" stroke-linejoin="round"/>
<path d="M386.038 535.892L396.614 535.895" stroke="#09DE5B" stroke-width="20" stroke-linecap="round" stroke-linejoin="round"/>
<path d="M425.153 537.293L435.729 537.297" stroke="#09DE5B" stroke-width="20" stroke-linecap="round" stroke-linejoin="round"/>
<path d="M679.716 534.26L697.344 534.265" stroke="#09DE5B" stroke-width="20" stroke-linecap="round" stroke-linejoin="round"/>
<path d="M589.5 95L639.5 405.5L127.5 402L93 95L589.5 95Z" fill="#FFFDFD"/>
<circle cx="347.5" cy="86.5" r="4.5" fill="#020202"/>
</svg>
